# xmcd CD database file
# Copyright (C) 1993-1998 Ti Kan
#
# Track frame offsets:
#	182
#	13177
#	25125
#	39502
#	52615
#	69430
#	87667
#	105825
#	117095
#	128250
#	142102
#	153370
#	164392
#
# Disc length: 2371 seconds
#
# Revision: 1
# Processed by: cddbd v1.4b41PL1 Copyright (c) Steve Scherf et al.
# Submitted via: CDValet v3.01 - Copyright (c) 1997 Greg Leichner
#
DISCID=9909410d
DTITLE=Various Artist - Acervo Especial - Forro
DYEAR=1900
DGENRE=
TTITLE0=Forro De Cabo A Rabo
TTITLE1=Balanceiro Da Usina - Beija-Flor - Ole, Laurindo - Siriri, Sirira - Ba
TTITLE1=naneira Mangara
TTITLE2=Isso Aqui Ta Bom Demais
TTITLE3=Eu Vou Pra Lua
TTITLE4=Voce Caiu Do Ceu
TTITLE5=O Veio Dançou
TTITLE6=Forro N* 1
TTITLE7=Pedras Que Cantam
TTITLE8=Hoje E Dia De Forro
TTITLE9=O Forro Ta Cheio
TTITLE10=Doido Pra Vadiar
TTITLE11=Feira De Mangaio
TTITLE12=Vem Morena
EXTD=
EXTT0=
EXTT1=
EXTT2=
EXTT3=
EXTT4=
EXTT5=
EXTT6=
EXTT7=
EXTT8=
EXTT9=
EXTT10=
EXTT11=
EXTT12=
PLAYORDER=
